<svg width="24" height="24" viewBox="0 0 24 24" fill="none" xmlns="http://www.w3.org/2000/svg">
<path d="M8 22.3101C7.72 22.3101 7.42998 22.2401 7.16998 22.1001C6.59998 21.8001 6.25 21.2001 6.25 20.5601V19.1402C3.23 18.8302 1.25 16.6101 1.25 13.4301V7.43018C1.25 3.99018 3.56 1.68018 7 1.68018H17C20.44 1.68018 22.75 3.99018 22.75 7.43018V13.4301C22.75 16.8701 20.44 19.1801 17 19.1801H13.23L8.96997 22.0202C8.67997 22.2102 8.34 22.3101 8 22.3101ZM7 3.17017C4.42 3.17017 2.75 4.84017 2.75 7.42017V13.4202C2.75 16.0002 4.42 17.6702 7 17.6702C7.41 17.6702 7.75 18.0102 7.75 18.4202V20.5502C7.75 20.6802 7.83 20.7402 7.88 20.7702C7.93001 20.8002 8.03001 20.8302 8.14001 20.7602L12.59 17.8002C12.71 17.7202 12.86 17.6702 13.01 17.6702H17.01C19.59 17.6702 21.26 16.0002 21.26 13.4202V7.42017C21.26 4.84017 19.59 3.17017 17.01 3.17017H7Z" fill="#9197B3"/>
<path d="M11.9998 12.1001C11.5898 12.1001 11.2498 11.7601 11.2498 11.3501V11.1401C11.2498 9.98014 12.0998 9.41013 12.4198 9.19013C12.7898 8.94013 12.9098 8.77014 12.9098 8.51014C12.9098 8.01014 12.4998 7.6001 11.9998 7.6001C11.4998 7.6001 11.0898 8.01014 11.0898 8.51014C11.0898 8.92014 10.7498 9.26014 10.3398 9.26014C9.92984 9.26014 9.58984 8.92014 9.58984 8.51014C9.58984 7.18014 10.6698 6.1001 11.9998 6.1001C13.3298 6.1001 14.4098 7.18014 14.4098 8.51014C14.4098 9.65014 13.5698 10.2201 13.2598 10.4301C12.8698 10.6901 12.7498 10.8601 12.7498 11.1401V11.3501C12.7498 11.7701 12.4098 12.1001 11.9998 12.1001Z" fill="#9197B3"/>
<path d="M12 14.5903C11.58 14.5903 11.25 14.2503 11.25 13.8403C11.25 13.4303 11.59 13.0903 12 13.0903C12.41 13.0903 12.75 13.4303 12.75 13.8403C12.75 14.2503 12.42 14.5903 12 14.5903Z" fill="#9197B3"/>
</svg>
