<svg width="24" height="24" viewBox="0 0 24 24" fill="none" xmlns="http://www.w3.org/2000/svg">
<path fill-rule="evenodd" clip-rule="evenodd" d="M3.09467 3.09467C4.42914 1.7602 6.42603 1.25 9 1.25H15C17.574 1.25 19.5709 1.7602 20.9053 3.09467C22.2398 4.42914 22.75 6.42603 22.75 9V15C22.75 17.574 22.2398 19.5709 20.9053 20.9053C19.5709 22.2398 17.574 22.75 15 22.75H9C6.42603 22.75 4.42914 22.2398 3.09467 20.9053C1.7602 19.5709 1.25 17.574 1.25 15V9C1.25 6.42603 1.7602 4.42914 3.09467 3.09467ZM4.15533 4.15533C3.2398 5.07086 2.75 6.57397 2.75 9V15C2.75 17.426 3.2398 18.9291 4.15533 19.8447C5.07086 20.7602 6.57397 21.25 9 21.25H15C17.426 21.25 18.9291 20.7602 19.8447 19.8447C20.7602 18.9291 21.25 17.426 21.25 15V9C21.25 6.57397 20.7602 5.07086 19.8447 4.15533C18.9291 3.2398 17.426 2.75 15 2.75H9C6.57397 2.75 5.07086 3.2398 4.15533 4.15533Z" fill="#9197B3"/>
<path fill-rule="evenodd" clip-rule="evenodd" d="M15.7513 8.2621C14.4129 6.93192 12.2465 6.93426 10.9203 8.26047C9.99613 9.18463 9.71452 10.5121 10.0768 11.6896C10.1585 11.9551 10.0867 12.244 9.8903 12.4405L7.32479 15.006C7.3223 15.0094 7.31693 15.0171 7.30969 15.0299C7.29716 15.0521 7.28413 15.0809 7.27338 15.1128C7.26258 15.145 7.25659 15.1729 7.25405 15.193C7.25323 15.1995 7.25291 15.2041 7.25278 15.2068L7.25339 15.211L7.41179 16.399C7.41584 16.4181 7.43531 16.469 7.48723 16.5218C7.5396 16.575 7.58005 16.5852 7.58285 16.5859C7.58297 16.5859 7.58287 16.5859 7.58285 16.5859L7.58909 16.5867L8.79718 16.7478C8.79954 16.7478 8.80772 16.748 8.82183 16.7463C8.84398 16.7438 8.87139 16.7381 8.90014 16.7287C8.92903 16.7192 8.95194 16.7084 8.96685 16.6997C8.97013 16.6978 8.97261 16.6963 8.97436 16.6951C8.97644 16.693 8.97855 16.6909 8.98066 16.6888L11.5707 14.1088C11.7683 13.9119 12.0589 13.841 12.3251 13.9247C13.4956 14.2931 14.822 14.0068 15.7488 13.0806C17.0791 11.7413 17.0741 9.57678 15.7513 8.2621ZM16.8087 7.19818C14.887 5.28835 11.7734 5.28602 9.85963 7.19981C8.64136 8.41808 8.20279 10.116 8.52775 11.6817L6.24964 13.9598L6.2355 13.9743C6.05188 14.1681 5.92642 14.4122 5.85155 14.6349C5.77829 14.8529 5.72586 15.1326 5.76733 15.4152L5.92654 16.6093L5.92869 16.6242C5.98619 16.9979 6.17755 17.3293 6.4177 17.5735C6.65728 17.8171 6.99428 18.023 7.39341 18.0739L8.58646 18.233C8.86185 18.2725 9.13922 18.2288 9.36729 18.1541C9.59113 18.0807 9.84613 17.9515 10.0453 17.7454L12.3256 15.474C13.8963 15.8072 15.5945 15.3562 16.8103 14.1405L16.8119 14.1388C18.7208 12.2181 18.7255 9.10324 16.8087 7.19818Z" fill="#9197B3"/>
<path fill-rule="evenodd" clip-rule="evenodd" d="M9.07287 14.8865C9.36747 14.5953 9.84234 14.5981 10.1335 14.8927L10.9835 15.7527C11.2747 16.0473 11.2719 16.5222 10.9773 16.8133C10.6827 17.1045 10.2079 17.1017 9.9167 16.8071L9.06668 15.9471C8.7755 15.6525 8.77827 15.1777 9.07287 14.8865Z" fill="#9197B3"/>
<path fill-rule="evenodd" clip-rule="evenodd" d="M12.3945 10.7002C12.3945 10.1479 12.8422 9.7002 13.3945 9.7002H13.4035C13.9558 9.7002 14.4035 10.1479 14.4035 10.7002C14.4035 11.2525 13.9558 11.7002 13.4035 11.7002H13.3945C12.8422 11.7002 12.3945 11.2525 12.3945 10.7002Z" fill="#9197B3"/>
</svg>
