<svg width="24" height="24" viewBox="0 0 24 24" fill="none" xmlns="http://www.w3.org/2000/svg">
<path d="M15.0006 22.3699H9.00063C7.68063 22.3699 6.58063 22.2399 5.65063 21.9599C5.31063 21.8599 5.09063 21.5299 5.11063 21.1799C5.36063 18.1899 8.39063 15.8398 12.0006 15.8398C15.6106 15.8398 18.6306 18.1799 18.8906 21.1799C18.9206 21.5399 18.7006 21.8599 18.3506 21.9599C17.4206 22.2399 16.3206 22.3699 15.0006 22.3699ZM6.72063 20.6799C7.38063 20.8099 8.13063 20.8699 9.00063 20.8699H15.0006C15.8706 20.8699 16.6206 20.8099 17.2806 20.6799C16.7506 18.7599 14.5606 17.3398 12.0006 17.3398C9.44063 17.3398 7.25063 18.7599 6.72063 20.6799Z" fill="white"/>
<path fill-rule="evenodd" clip-rule="evenodd" d="M3.09467 2.71479C4.42914 1.38032 6.42603 0.870117 9 0.870117H15C17.574 0.870117 19.5709 1.38032 20.9053 2.71479C22.2398 4.04926 22.75 6.04614 22.75 8.62012V14.6201C22.75 16.5708 22.4585 18.1842 21.7401 19.4329C21.0039 20.7124 19.8645 21.5314 18.3443 21.9618C18.1288 22.0228 17.8974 21.9843 17.7133 21.8569C17.5291 21.7295 17.4115 21.5265 17.3927 21.3034C17.2156 19.211 14.9928 17.3401 12 17.3401C9.00718 17.3401 6.78438 19.211 6.60733 21.3034C6.58845 21.5265 6.47087 21.7295 6.28673 21.8569C6.10259 21.9843 5.87116 22.0228 5.65571 21.9618C4.13552 21.5314 2.99613 20.7124 2.25993 19.4329C1.54148 18.1842 1.25 16.5708 1.25 14.6201V8.62012C1.25 6.04614 1.7602 4.04926 3.09467 2.71479ZM4.15533 3.77545C3.2398 4.69098 2.75 6.19409 2.75 8.62012V14.6201C2.75 16.4495 3.02852 17.761 3.56007 18.6848C3.95322 19.3681 4.50844 19.8805 5.28506 20.2356C6.02949 17.6289 8.85827 15.8401 12 15.8401C15.1417 15.8401 17.9705 17.6289 18.7149 20.2356C19.4916 19.8805 20.0468 19.3681 20.4399 18.6848C20.9715 17.761 21.25 16.4495 21.25 14.6201V8.62012C21.25 6.19409 20.7602 4.69098 19.8447 3.77545C18.9291 2.85992 17.426 2.37012 15 2.37012H9C6.57397 2.37012 5.07086 2.85992 4.15533 3.77545ZM12 7.37012C10.4342 7.37012 9.17 8.63435 9.17 10.2001C9.17 11.7686 10.4369 13.0401 12 13.0401C13.5631 13.0401 14.83 11.7686 14.83 10.2001C14.83 8.63435 13.5658 7.37012 12 7.37012ZM7.67 10.2001C7.67 7.80593 9.60578 5.87012 12 5.87012C14.3942 5.87012 16.33 7.80593 16.33 10.2001C16.33 12.5916 14.3969 14.5401 12 14.5401C9.60306 14.5401 7.67 12.5916 7.67 10.2001Z" fill="white"/>
</svg>
