<svg width="24" height="24" viewBox="0 0 24 24" fill="none" xmlns="http://www.w3.org/2000/svg">
<path d="M12 22.7352C11.37 22.7352 10.78 22.4953 10.34 22.0453L8.82001 20.5253C8.70001 20.4053 8.38 20.2753 8.22 20.2753H6.06C4.76 20.2753 3.70999 19.2252 3.70999 17.9252V15.7653C3.70999 15.6053 3.57999 15.2853 3.45999 15.1653L1.94 13.6453C1.5 13.2053 1.25 12.6152 1.25 11.9852C1.25 11.3552 1.49 10.7652 1.94 10.3252L3.45999 8.80515C3.57999 8.68515 3.70999 8.36517 3.70999 8.20517V6.04526C3.70999 4.74526 4.76 3.69516 6.06 3.69516H8.22C8.38 3.69516 8.70001 3.56516 8.82001 3.44516L10.34 1.92514C11.22 1.04514 12.78 1.04514 13.66 1.92514L15.18 3.44516C15.3 3.56516 15.62 3.69516 15.78 3.69516H17.94C19.24 3.69516 20.29 4.74526 20.29 6.04526V8.20517C20.29 8.36517 20.42 8.68515 20.54 8.80515L22.06 10.3252C22.5 10.7652 22.75 11.3552 22.75 11.9852C22.75 12.6152 22.51 13.2053 22.06 13.6453L20.54 15.1653C20.42 15.2853 20.29 15.6053 20.29 15.7653V17.9252C20.29 19.2252 19.24 20.2753 17.94 20.2753H15.78C15.62 20.2753 15.3 20.4053 15.18 20.5253L13.66 22.0453C13.22 22.4953 12.63 22.7352 12 22.7352ZM4.51999 14.1052C4.91999 14.5052 5.20999 15.2053 5.20999 15.7653V17.9252C5.20999 18.3952 5.59 18.7753 6.06 18.7753H8.22C8.78 18.7753 9.48001 19.0652 9.88 19.4652L11.4 20.9852C11.72 21.3052 12.28 21.3052 12.6 20.9852L14.12 19.4652C14.52 19.0652 15.22 18.7753 15.78 18.7753H17.94C18.41 18.7753 18.79 18.3952 18.79 17.9252V15.7653C18.79 15.2053 19.08 14.5052 19.48 14.1052L21 12.5852C21.16 12.4252 21.25 12.2152 21.25 11.9852C21.25 11.7552 21.16 11.5453 21 11.3853L19.48 9.86521C19.08 9.46521 18.79 8.76517 18.79 8.20517V6.04526C18.79 5.57526 18.41 5.19516 17.94 5.19516H15.78C15.22 5.19516 14.52 4.90522 14.12 4.50522L12.6 2.9852C12.28 2.6652 11.72 2.6652 11.4 2.9852L9.88 4.50522C9.48001 4.90522 8.78 5.19516 8.22 5.19516H6.06C5.59 5.19516 5.20999 5.57526 5.20999 6.04526V8.20517C5.20999 8.76517 4.91999 9.46521 4.51999 9.86521L3 11.3853C2.84 11.5453 2.75 11.7552 2.75 11.9852C2.75 12.2152 2.84 12.4252 3 12.5852L4.51999 14.1052Z" fill="white"/>
<path d="M15.0002 15.9849C14.4402 15.9849 13.9902 15.5349 13.9902 14.9849C13.9902 14.4349 14.4402 13.9849 14.9902 13.9849C15.5402 13.9849 15.9902 14.4349 15.9902 14.9849C15.9902 15.5349 15.5502 15.9849 15.0002 15.9849Z" fill="white"/>
<path d="M9.01001 9.98486C8.45001 9.98486 8 9.53486 8 8.98486C8 8.43486 8.45 7.98486 9 7.98486C9.55 7.98486 10 8.43486 10 8.98486C10 9.53486 9.56001 9.98486 9.01001 9.98486Z" fill="white"/>
<path d="M8.99945 15.7344C8.80945 15.7344 8.61945 15.6644 8.46945 15.5144C8.17945 15.2244 8.17945 14.7444 8.46945 14.4544L14.4695 8.45432C14.7595 8.16432 15.2395 8.16432 15.5295 8.45432C15.8195 8.74432 15.8195 9.22438 15.5295 9.51438L9.52945 15.5144C9.37945 15.6644 9.18945 15.7344 8.99945 15.7344Z" fill="white"/>
</svg>
