<svg width="24" height="24" viewBox="0 0 24 24" fill="none" xmlns="http://www.w3.org/2000/svg">
<path fill-rule="evenodd" clip-rule="evenodd" d="M3.60156 15.3604C4.01578 15.3604 4.35156 15.6961 4.35156 16.1104C4.35156 17.271 5.4539 18.3004 7.18158 18.3004C8.89597 18.3004 10.0016 17.2636 10.0016 16.1104C10.0016 15.6961 10.3374 15.3604 10.7516 15.3604C11.1658 15.3604 11.5016 15.6961 11.5016 16.1104V18.1404C11.5016 20.3689 9.46466 22.0004 7.18158 22.0004C4.90139 22.0004 2.85156 20.3714 2.85156 18.1404V16.1104C2.85156 15.6961 3.18735 15.3604 3.60156 15.3604ZM4.60513 19.106C5.03548 19.8974 5.9803 20.5004 7.18158 20.5004C8.38356 20.5004 9.32567 19.8959 9.7524 19.1015C9.01279 19.5534 8.10857 19.8004 7.18158 19.8004C6.25221 19.8004 5.34618 19.5559 4.60513 19.106Z" fill="#9197B3"/>
<path fill-rule="evenodd" clip-rule="evenodd" d="M7.16003 11.0098C6.34166 11.0098 5.6302 11.2903 5.12456 11.7337L5.12395 11.7342C4.62392 12.1717 4.34009 12.7446 4.34009 13.3598C4.34009 13.7142 4.43796 14.0406 4.61109 14.3305C5.03854 15.0227 5.97634 15.5498 7.17004 15.5498C8.36853 15.5498 9.30277 15.0294 9.72815 14.3319C9.90187 14.0417 10.0001 13.7148 10.0001 13.3598C10.0001 12.7428 9.71529 12.167 9.20994 11.7459L9.20046 11.738L9.20053 11.738C8.68875 11.2971 7.97312 11.0098 7.16003 11.0098ZM4.13558 10.6059C4.92994 9.90927 5.9984 9.50977 7.16003 9.50977C8.32465 9.50977 9.38719 9.92086 10.1749 10.5976C10.9869 11.2763 11.5001 12.2589 11.5001 13.3598C11.5001 14.004 11.3188 14.5964 11.0132 15.1056L11.0109 15.1095L11.0109 15.1095C10.2556 16.3511 8.77043 17.0498 7.17004 17.0498C5.56568 17.0498 4.08457 16.3385 3.33106 15.1125L3.32687 15.1057L3.32691 15.1056C3.02132 14.5963 2.84009 14.0039 2.84009 13.3598C2.84009 12.255 3.35621 11.2878 4.13619 10.6053L4.63007 11.1698L4.13558 10.6059Z" fill="#9197B3"/>
<path fill-rule="evenodd" clip-rule="evenodd" d="M7.18158 11C5.51321 11 4.35156 12.1498 4.35156 13.36V16.11C4.35156 17.2609 5.46426 18.3 7.18158 18.3C8.89779 18.3 10.0016 17.2718 10.0016 16.11V13.36C10.0016 12.743 9.71629 12.1616 9.21991 11.7263C8.70828 11.2865 7.99353 11 7.18158 11ZM2.85156 13.36C2.85156 11.1302 4.88995 9.5 7.18158 9.5C8.34849 9.5 9.41292 9.91271 10.2011 10.5918L10.2055 10.5956L10.2055 10.5956C10.9878 11.2801 11.5016 12.2579 11.5016 13.36V16.11C11.5016 18.3882 9.40537 19.8 7.18158 19.8C4.9589 19.8 2.85156 18.3791 2.85156 16.11V13.36Z" fill="#9197B3"/>
<path fill-rule="evenodd" clip-rule="evenodd" d="M18.92 9.9502C18.5609 9.9502 18.245 10.0894 18.0173 10.3234L18.0038 10.3368C17.7378 10.5965 17.5892 10.9662 17.6266 11.359L17.6275 11.3679L17.6274 11.3679C17.6803 12.0029 18.2909 12.5501 19.0399 12.5501H20.9828C21.1445 12.5397 21.25 12.4133 21.25 12.2802V10.2201C21.25 10.087 21.1444 9.96062 20.9828 9.9502H18.92ZM16.9492 9.27012C17.4609 8.74827 18.1624 8.4502 18.92 8.4502H21C21.0089 8.4502 21.0179 8.45035 21.0268 8.45067C21.9798 8.48471 22.75 9.25586 22.75 10.2201V12.2802C22.75 13.2446 21.9797 14.0156 21.0268 14.0497C21.0179 14.05 21.0089 14.0501 21 14.0501H19.0399C17.6303 14.0501 16.2623 13.0194 16.133 11.4969C16.0522 10.6347 16.3804 9.82925 16.9492 9.27012Z" fill="#9197B3"/>
<path fill-rule="evenodd" clip-rule="evenodd" d="M7 3.5C6.75575 3.5 6.52398 3.51744 6.30404 3.55128L6.28339 3.55416C5.17606 3.69312 4.30559 4.16721 3.70955 4.86651C3.11197 5.56761 2.75 6.54287 2.75 7.75V9.75C2.75 10.1642 2.41421 10.5 2 10.5C1.58579 10.5 1.25 10.1642 1.25 9.75V7.75C1.25 6.23713 1.70803 4.90239 2.56796 3.89349C3.42737 2.88519 4.64812 2.2499 6.08633 2.06714C6.38312 2.02204 6.68789 2 7 2H16C16.2697 2 16.5608 2.00976 16.8545 2.05711C18.305 2.22975 19.5395 2.8609 20.4103 3.87C21.2833 4.88163 21.75 6.2253 21.75 7.75V9.20001C21.75 9.61422 21.4142 9.95001 21 9.95001H18.92C18.561 9.95001 18.2452 10.0892 18.0174 10.3232L18.0039 10.3367C17.7378 10.5964 17.5892 10.9662 17.6266 11.3589L17.6275 11.3677L17.6274 11.3677C17.6803 12.0027 18.2909 12.55 19.04 12.55H21C21.4142 12.55 21.75 12.8858 21.75 13.3V14.75C21.75 16.4204 21.1899 17.8707 20.1553 18.9053C19.1207 19.9399 17.6704 20.5 16 20.5H13.5C13.0858 20.5 12.75 20.1642 12.75 19.75C12.75 19.3358 13.0858 19 13.5 19H16C17.3296 19 18.3793 18.5601 19.0947 17.8447C19.8101 17.1293 20.25 16.0796 20.25 14.75V14.05H19.04C17.6305 14.05 16.2623 13.0193 16.133 11.4967C16.0522 10.6345 16.3805 9.82904 16.9493 9.26996C17.4609 8.74817 18.1623 8.45001 18.92 8.45001H20.25V7.75C20.25 6.5347 19.8817 5.55336 19.2747 4.84999C18.6691 4.14822 17.7851 3.67541 16.6634 3.54497C16.6511 3.54354 16.6389 3.54182 16.6267 3.53979C16.4468 3.5098 16.2445 3.5 16 3.5H7Z" fill="#9197B3"/>
</svg>
