<svg width="0" height="0" class="hidden">
  <symbol xmlns="http://www.w3.org/2000/svg" viewBox="0 0 37 37" id="logo">
    <path d="M18.5003 34.8876C17.4674 34.8876 16.419 34.6564 15.602 34.1784L7.12284 29.2914C3.66951 26.9634 3.45367 26.6089 3.45367 22.9551V14.0443C3.45367 10.3905 3.65409 10.0359 7.04576 7.73887L15.5865 2.80553C17.2053 1.86512 19.749 1.86512 21.3678 2.80553L29.8778 7.70803C33.3311 10.0359 33.547 10.3905 33.547 14.0443V22.9397C33.547 26.5934 33.3465 26.948 29.9549 29.2451L21.414 34.1784C20.5815 34.6564 19.5332 34.8876 18.5003 34.8876ZM18.5003 4.42428C17.8528 4.42428 17.2207 4.54762 16.7736 4.8097L8.29451 9.7122C5.78159 11.408 5.78159 11.408 5.78159 14.0443V22.9397C5.78159 25.5759 5.78159 25.5759 8.35617 27.318L16.7736 32.1743C17.6832 32.6984 19.3328 32.6984 20.2424 32.1743L28.7215 27.2718C31.219 25.5759 31.219 25.5759 31.219 22.9397V14.0443C31.219 11.408 31.219 11.408 28.6445 9.66595L20.227 4.8097C19.7799 4.54762 19.1478 4.42428 18.5003 4.42428Z"></path>
    <path d="M18.5 24.2812C15.3088 24.2812 12.7188 21.6912 12.7188 18.5C12.7188 15.3088 15.3088 12.7188 18.5 12.7188C21.6912 12.7188 24.2812 15.3088 24.2812 18.5C24.2812 21.6912 21.6912 24.2812 18.5 24.2812ZM18.5 15.0312C16.5883 15.0312 15.0312 16.5883 15.0312 18.5C15.0312 20.4117 16.5883 21.9688 18.5 21.9688C20.4117 21.9688 21.9688 20.4117 21.9688 18.5C21.9688 16.5883 20.4117 15.0312 18.5 15.0312Z"></path>
  </symbol>
  <symbol xmlns="http://www.w3.org/2000/svg" viewBox="0 0 24 24" id="procent">
    <path d="M12 22.7352C11.37 22.7352 10.78 22.4953 10.34 22.0453L8.82001 20.5253C8.70001 20.4053 8.38 20.2753 8.22 20.2753H6.06C4.76 20.2753 3.70999 19.2252 3.70999 17.9252V15.7653C3.70999 15.6053 3.57999 15.2853 3.45999 15.1653L1.94 13.6453C1.5 13.2053 1.25 12.6152 1.25 11.9852C1.25 11.3552 1.49 10.7652 1.94 10.3252L3.45999 8.80515C3.57999 8.68515 3.70999 8.36517 3.70999 8.20517V6.04526C3.70999 4.74526 4.76 3.69516 6.06 3.69516H8.22C8.38 3.69516 8.70001 3.56516 8.82001 3.44516L10.34 1.92514C11.22 1.04514 12.78 1.04514 13.66 1.92514L15.18 3.44516C15.3 3.56516 15.62 3.69516 15.78 3.69516H17.94C19.24 3.69516 20.29 4.74526 20.29 6.04526V8.20517C20.29 8.36517 20.42 8.68515 20.54 8.80515L22.06 10.3252C22.5 10.7652 22.75 11.3552 22.75 11.9852C22.75 12.6152 22.51 13.2053 22.06 13.6453L20.54 15.1653C20.42 15.2853 20.29 15.6053 20.29 15.7653V17.9252C20.29 19.2252 19.24 20.2753 17.94 20.2753H15.78C15.62 20.2753 15.3 20.4053 15.18 20.5253L13.66 22.0453C13.22 22.4953 12.63 22.7352 12 22.7352ZM4.51999 14.1052C4.91999 14.5052 5.20999 15.2053 5.20999 15.7653V17.9252C5.20999 18.3952 5.59 18.7753 6.06 18.7753H8.22C8.78 18.7753 9.48001 19.0652 9.88 19.4652L11.4 20.9852C11.72 21.3052 12.28 21.3052 12.6 20.9852L14.12 19.4652C14.52 19.0652 15.22 18.7753 15.78 18.7753H17.94C18.41 18.7753 18.79 18.3952 18.79 17.9252V15.7653C18.79 15.2053 19.08 14.5052 19.48 14.1052L21 12.5852C21.16 12.4252 21.25 12.2152 21.25 11.9852C21.25 11.7552 21.16 11.5453 21 11.3853L19.48 9.86521C19.08 9.46521 18.79 8.76517 18.79 8.20517V6.04526C18.79 5.57526 18.41 5.19516 17.94 5.19516H15.78C15.22 5.19516 14.52 4.90522 14.12 4.50522L12.6 2.9852C12.28 2.6652 11.72 2.6652 11.4 2.9852L9.88 4.50522C9.48001 4.90522 8.78 5.19516 8.22 5.19516H6.06C5.59 5.19516 5.20999 5.57526 5.20999 6.04526V8.20517C5.20999 8.76517 4.91999 9.46521 4.51999 9.86521L3 11.3853C2.84 11.5453 2.75 11.7552 2.75 11.9852C2.75 12.2152 2.84 12.4252 3 12.5852L4.51999 14.1052Z"></path>
    <path d="M15.0002 15.9849C14.4402 15.9849 13.9902 15.5349 13.9902 14.9849C13.9902 14.4349 14.4402 13.9849 14.9902 13.9849C15.5402 13.9849 15.9902 14.4349 15.9902 14.9849C15.9902 15.5349 15.5502 15.9849 15.0002 15.9849Z"></path>
    <path d="M9.01001 9.98486C8.45001 9.98486 8 9.53486 8 8.98486C8 8.43486 8.45 7.98486 9 7.98486C9.55 7.98486 10 8.43486 10 8.98486C10 9.53486 9.56001 9.98486 9.01001 9.98486Z"></path>
    <path d="M8.99945 15.7344C8.80945 15.7344 8.61945 15.6644 8.46945 15.5144C8.17945 15.2244 8.17945 14.7444 8.46945 14.4544L14.4695 8.45432C14.7595 8.16432 15.2395 8.16432 15.5295 8.45432C15.8195 8.74432 15.8195 9.22438 15.5295 9.51438L9.52945 15.5144C9.37945 15.6644 9.18945 15.7344 8.99945 15.7344Z"></path>
  </symbol>
  <symbol xmlns="http://www.w3.org/2000/svg" viewBox="0 0 24 24" id="key">
    <path fill-rule="evenodd" clip-rule="evenodd" d="M3.09467 3.09467C4.42914 1.7602 6.42603 1.25 9 1.25H15C17.574 1.25 19.5709 1.7602 20.9053 3.09467C22.2398 4.42914 22.75 6.42603 22.75 9V15C22.75 17.574 22.2398 19.5709 20.9053 20.9053C19.5709 22.2398 17.574 22.75 15 22.75H9C6.42603 22.75 4.42914 22.2398 3.09467 20.9053C1.7602 19.5709 1.25 17.574 1.25 15V9C1.25 6.42603 1.7602 4.42914 3.09467 3.09467ZM4.15533 4.15533C3.2398 5.07086 2.75 6.57397 2.75 9V15C2.75 17.426 3.2398 18.9291 4.15533 19.8447C5.07086 20.7602 6.57397 21.25 9 21.25H15C17.426 21.25 18.9291 20.7602 19.8447 19.8447C20.7602 18.9291 21.25 17.426 21.25 15V9C21.25 6.57397 20.7602 5.07086 19.8447 4.15533C18.9291 3.2398 17.426 2.75 15 2.75H9C6.57397 2.75 5.07086 3.2398 4.15533 4.15533Z"></path>
    <path fill-rule="evenodd" clip-rule="evenodd" d="M15.7513 8.2621C14.4129 6.93192 12.2465 6.93426 10.9203 8.26047C9.99613 9.18463 9.71452 10.5121 10.0768 11.6896C10.1585 11.9551 10.0867 12.244 9.8903 12.4405L7.32479 15.006C7.3223 15.0094 7.31693 15.0171 7.30969 15.0299C7.29716 15.0521 7.28413 15.0809 7.27338 15.1128C7.26258 15.145 7.25659 15.1729 7.25405 15.193C7.25323 15.1995 7.25291 15.2041 7.25278 15.2068L7.25339 15.211L7.41179 16.399C7.41584 16.4181 7.43531 16.469 7.48723 16.5218C7.5396 16.575 7.58005 16.5852 7.58285 16.5859C7.58297 16.5859 7.58287 16.5859 7.58285 16.5859L7.58909 16.5867L8.79718 16.7478C8.79954 16.7478 8.80772 16.748 8.82183 16.7463C8.84398 16.7438 8.87139 16.7381 8.90014 16.7287C8.92903 16.7192 8.95194 16.7084 8.96685 16.6997C8.97013 16.6978 8.97261 16.6963 8.97436 16.6951C8.97644 16.693 8.97855 16.6909 8.98066 16.6888L11.5707 14.1088C11.7683 13.9119 12.0589 13.841 12.3251 13.9247C13.4956 14.2931 14.822 14.0068 15.7488 13.0806C17.0791 11.7413 17.0741 9.57678 15.7513 8.2621ZM16.8087 7.19818C14.887 5.28835 11.7734 5.28602 9.85963 7.19981C8.64136 8.41808 8.20279 10.116 8.52775 11.6817L6.24964 13.9598L6.2355 13.9743C6.05188 14.1681 5.92642 14.4122 5.85155 14.6349C5.77829 14.8529 5.72586 15.1326 5.76733 15.4152L5.92654 16.6093L5.92869 16.6242C5.98619 16.9979 6.17755 17.3293 6.4177 17.5735C6.65728 17.8171 6.99428 18.023 7.39341 18.0739L8.58646 18.233C8.86185 18.2725 9.13922 18.2288 9.36729 18.1541C9.59113 18.0807 9.84613 17.9515 10.0453 17.7454L12.3256 15.474C13.8963 15.8072 15.5945 15.3562 16.8103 14.1405L16.8119 14.1388C18.7208 12.2181 18.7255 9.10324 16.8087 7.19818Z"></path>
    <path fill-rule="evenodd" clip-rule="evenodd" d="M9.07287 14.8865C9.36747 14.5953 9.84234 14.5981 10.1335 14.8927L10.9835 15.7527C11.2747 16.0473 11.2719 16.5222 10.9773 16.8133C10.6827 17.1045 10.2079 17.1017 9.9167 16.8071L9.06668 15.9471C8.7755 15.6525 8.77827 15.1777 9.07287 14.8865Z"></path>
    <path fill-rule="evenodd" clip-rule="evenodd" d="M12.3945 10.7002C12.3945 10.1479 12.8422 9.7002 13.3945 9.7002H13.4035C13.9558 9.7002 14.4035 10.1479 14.4035 10.7002C14.4035 11.2525 13.9558 11.7002 13.4035 11.7002H13.3945C12.8422 11.7002 12.3945 11.2525 12.3945 10.7002Z"></path>
  </symbol>
  <symbol xmlns="http://www.w3.org/2000/svg" viewBox="0 0 24 24" id="cube">
    <path d="M15 22.75H9C3.57 22.75 1.25 20.43 1.25 15V9C1.25 3.57 3.57 1.25 9 1.25H15C20.43 1.25 22.75 3.57 22.75 9V15C22.75 20.43 20.43 22.75 15 22.75ZM9 2.75C4.39 2.75 2.75 4.39 2.75 9V15C2.75 19.61 4.39 21.25 9 21.25H15C19.61 21.25 21.25 19.61 21.25 15V9C21.25 4.39 19.61 2.75 15 2.75H9Z"></path>
    <path d="M12.0006 13.0797C11.8706 13.0797 11.7406 13.0497 11.6206 12.9797L6.32061 9.9197C5.96061 9.7097 5.84059 9.2497 6.05059 8.8997C6.26059 8.5397 6.72061 8.4197 7.07061 8.6297L11.9906 11.4797L16.8806 8.6497C17.2406 8.4397 17.7006 8.5697 17.9006 8.9197C18.1006 9.2697 17.9806 9.7397 17.6306 9.9397L12.3706 12.9797C12.2606 13.0397 12.1306 13.0797 12.0006 13.0797Z"></path>
    <path d="M12 18.5201C11.59 18.5201 11.25 18.1801 11.25 17.7701V12.3301C11.25 11.9201 11.59 11.5801 12 11.5801C12.41 11.5801 12.75 11.9201 12.75 12.3301V17.7701C12.75 18.1801 12.41 18.5201 12 18.5201Z"></path>
    <path d="M12.0002 18.7498C11.4202 18.7498 10.8503 18.6198 10.3903 18.3698L7.19025 16.5898C6.23025 16.0598 5.49023 14.7898 5.49023 13.6898V10.2998C5.49023 9.20981 6.24025 7.9398 7.19025 7.3998L10.3903 5.6198C11.3103 5.1098 12.6902 5.1098 13.6102 5.6198L16.8102 7.3998C17.7702 7.9298 18.5103 9.19981 18.5103 10.2998V13.6898C18.5103 14.7798 17.7602 16.0498 16.8102 16.5898L13.6102 18.3698C13.1502 18.6298 12.5802 18.7498 12.0002 18.7498ZM12.0002 6.7498C11.6702 6.7498 11.3502 6.8098 11.1202 6.9398L7.92026 8.7198C7.43026 8.9898 6.99023 9.7498 6.99023 10.2998V13.6898C6.99023 14.2498 7.43026 14.9998 7.92026 15.2698L11.1202 17.0498C11.5802 17.3098 12.4202 17.3098 12.8802 17.0498L16.0802 15.2698C16.5702 14.9998 17.0103 14.2398 17.0103 13.6898V10.2998C17.0103 9.73981 16.5702 8.9898 16.0802 8.7198L12.8802 6.9398C12.6502 6.8098 12.3302 6.7498 12.0002 6.7498Z"></path>
  </symbol>
  <symbol xmlns="http://www.w3.org/2000/svg" viewBox="0 0 24 24" id="person">
    <path d="M15.0006 22.3699H9.00063C7.68063 22.3699 6.58063 22.2399 5.65063 21.9599C5.31063 21.8599 5.09063 21.5299 5.11063 21.1799C5.36063 18.1899 8.39063 15.8398 12.0006 15.8398C15.6106 15.8398 18.6306 18.1799 18.8906 21.1799C18.9206 21.5399 18.7006 21.8599 18.3506 21.9599C17.4206 22.2399 16.3206 22.3699 15.0006 22.3699ZM6.72063 20.6799C7.38063 20.8099 8.13063 20.8699 9.00063 20.8699H15.0006C15.8706 20.8699 16.6206 20.8099 17.2806 20.6799C16.7506 18.7599 14.5606 17.3398 12.0006 17.3398C9.44063 17.3398 7.25063 18.7599 6.72063 20.6799Z"></path>
    <path fill-rule="evenodd" clip-rule="evenodd" d="M3.09467 2.71479C4.42914 1.38032 6.42603 0.870117 9 0.870117H15C17.574 0.870117 19.5709 1.38032 20.9053 2.71479C22.2398 4.04926 22.75 6.04614 22.75 8.62012V14.6201C22.75 16.5708 22.4585 18.1842 21.7401 19.4329C21.0039 20.7124 19.8645 21.5314 18.3443 21.9618C18.1288 22.0228 17.8974 21.9843 17.7133 21.8569C17.5291 21.7295 17.4115 21.5265 17.3927 21.3034C17.2156 19.211 14.9928 17.3401 12 17.3401C9.00718 17.3401 6.78438 19.211 6.60733 21.3034C6.58845 21.5265 6.47087 21.7295 6.28673 21.8569C6.10259 21.9843 5.87116 22.0228 5.65571 21.9618C4.13552 21.5314 2.99613 20.7124 2.25993 19.4329C1.54148 18.1842 1.25 16.5708 1.25 14.6201V8.62012C1.25 6.04614 1.7602 4.04926 3.09467 2.71479ZM4.15533 3.77545C3.2398 4.69098 2.75 6.19409 2.75 8.62012V14.6201C2.75 16.4495 3.02852 17.761 3.56007 18.6848C3.95322 19.3681 4.50844 19.8805 5.28506 20.2356C6.02949 17.6289 8.85827 15.8401 12 15.8401C15.1417 15.8401 17.9705 17.6289 18.7149 20.2356C19.4916 19.8805 20.0468 19.3681 20.4399 18.6848C20.9715 17.761 21.25 16.4495 21.25 14.6201V8.62012C21.25 6.19409 20.7602 4.69098 19.8447 3.77545C18.9291 2.85992 17.426 2.37012 15 2.37012H9C6.57397 2.37012 5.07086 2.85992 4.15533 3.77545ZM12 7.37012C10.4342 7.37012 9.17 8.63435 9.17 10.2001C9.17 11.7686 10.4369 13.0401 12 13.0401C13.5631 13.0401 14.83 11.7686 14.83 10.2001C14.83 8.63435 13.5658 7.37012 12 7.37012ZM7.67 10.2001C7.67 7.80593 9.60578 5.87012 12 5.87012C14.3942 5.87012 16.33 7.80593 16.33 10.2001C16.33 12.5916 14.3969 14.5401 12 14.5401C9.60306 14.5401 7.67 12.5916 7.67 10.2001Z"></path>
  </symbol>
  <symbol xmlns="http://www.w3.org/2000/svg" viewBox="0 0 24 24" id="purse">
    <path fill-rule="evenodd" clip-rule="evenodd" d="M3.60156 15.3604C4.01578 15.3604 4.35156 15.6961 4.35156 16.1104C4.35156 17.271 5.4539 18.3004 7.18158 18.3004C8.89597 18.3004 10.0016 17.2636 10.0016 16.1104C10.0016 15.6961 10.3374 15.3604 10.7516 15.3604C11.1658 15.3604 11.5016 15.6961 11.5016 16.1104V18.1404C11.5016 20.3689 9.46466 22.0004 7.18158 22.0004C4.90139 22.0004 2.85156 20.3714 2.85156 18.1404V16.1104C2.85156 15.6961 3.18735 15.3604 3.60156 15.3604ZM4.60513 19.106C5.03548 19.8974 5.9803 20.5004 7.18158 20.5004C8.38356 20.5004 9.32567 19.8959 9.7524 19.1015C9.01279 19.5534 8.10857 19.8004 7.18158 19.8004C6.25221 19.8004 5.34618 19.5559 4.60513 19.106Z"></path>
    <path fill-rule="evenodd" clip-rule="evenodd" d="M7.16003 11.0098C6.34166 11.0098 5.6302 11.2903 5.12456 11.7337L5.12395 11.7342C4.62392 12.1717 4.34009 12.7446 4.34009 13.3598C4.34009 13.7142 4.43796 14.0406 4.61109 14.3305C5.03854 15.0227 5.97634 15.5498 7.17004 15.5498C8.36853 15.5498 9.30277 15.0294 9.72815 14.3319C9.90187 14.0417 10.0001 13.7148 10.0001 13.3598C10.0001 12.7428 9.71529 12.167 9.20994 11.7459L9.20046 11.738L9.20053 11.738C8.68875 11.2971 7.97312 11.0098 7.16003 11.0098ZM4.13558 10.6059C4.92994 9.90927 5.9984 9.50977 7.16003 9.50977C8.32465 9.50977 9.38719 9.92086 10.1749 10.5976C10.9869 11.2763 11.5001 12.2589 11.5001 13.3598C11.5001 14.004 11.3188 14.5964 11.0132 15.1056L11.0109 15.1095L11.0109 15.1095C10.2556 16.3511 8.77043 17.0498 7.17004 17.0498C5.56568 17.0498 4.08457 16.3385 3.33106 15.1125L3.32687 15.1057L3.32691 15.1056C3.02132 14.5963 2.84009 14.0039 2.84009 13.3598C2.84009 12.255 3.35621 11.2878 4.13619 10.6053L4.63007 11.1698L4.13558 10.6059Z"></path>
    <path fill-rule="evenodd" clip-rule="evenodd" d="M7.18158 11C5.51321 11 4.35156 12.1498 4.35156 13.36V16.11C4.35156 17.2609 5.46426 18.3 7.18158 18.3C8.89779 18.3 10.0016 17.2718 10.0016 16.11V13.36C10.0016 12.743 9.71629 12.1616 9.21991 11.7263C8.70828 11.2865 7.99353 11 7.18158 11ZM2.85156 13.36C2.85156 11.1302 4.88995 9.5 7.18158 9.5C8.34849 9.5 9.41292 9.91271 10.2011 10.5918L10.2055 10.5956L10.2055 10.5956C10.9878 11.2801 11.5016 12.2579 11.5016 13.36V16.11C11.5016 18.3882 9.40537 19.8 7.18158 19.8C4.9589 19.8 2.85156 18.3791 2.85156 16.11V13.36Z"></path>
    <path fill-rule="evenodd" clip-rule="evenodd" d="M18.92 9.9502C18.5609 9.9502 18.245 10.0894 18.0173 10.3234L18.0038 10.3368C17.7378 10.5965 17.5892 10.9662 17.6266 11.359L17.6275 11.3679L17.6274 11.3679C17.6803 12.0029 18.2909 12.5501 19.0399 12.5501H20.9828C21.1445 12.5397 21.25 12.4133 21.25 12.2802V10.2201C21.25 10.087 21.1444 9.96062 20.9828 9.9502H18.92ZM16.9492 9.27012C17.4609 8.74827 18.1624 8.4502 18.92 8.4502H21C21.0089 8.4502 21.0179 8.45035 21.0268 8.45067C21.9798 8.48471 22.75 9.25586 22.75 10.2201V12.2802C22.75 13.2446 21.9797 14.0156 21.0268 14.0497C21.0179 14.05 21.0089 14.0501 21 14.0501H19.0399C17.6303 14.0501 16.2623 13.0194 16.133 11.4969C16.0522 10.6347 16.3804 9.82925 16.9492 9.27012Z"></path>
    <path fill-rule="evenodd" clip-rule="evenodd" d="M7 3.5C6.75575 3.5 6.52398 3.51744 6.30404 3.55128L6.28339 3.55416C5.17606 3.69312 4.30559 4.16721 3.70955 4.86651C3.11197 5.56761 2.75 6.54287 2.75 7.75V9.75C2.75 10.1642 2.41421 10.5 2 10.5C1.58579 10.5 1.25 10.1642 1.25 9.75V7.75C1.25 6.23713 1.70803 4.90239 2.56796 3.89349C3.42737 2.88519 4.64812 2.2499 6.08633 2.06714C6.38312 2.02204 6.68789 2 7 2H16C16.2697 2 16.5608 2.00976 16.8545 2.05711C18.305 2.22975 19.5395 2.8609 20.4103 3.87C21.2833 4.88163 21.75 6.2253 21.75 7.75V9.20001C21.75 9.61422 21.4142 9.95001 21 9.95001H18.92C18.561 9.95001 18.2452 10.0892 18.0174 10.3232L18.0039 10.3367C17.7378 10.5964 17.5892 10.9662 17.6266 11.3589L17.6275 11.3677L17.6274 11.3677C17.6803 12.0027 18.2909 12.55 19.04 12.55H21C21.4142 12.55 21.75 12.8858 21.75 13.3V14.75C21.75 16.4204 21.1899 17.8707 20.1553 18.9053C19.1207 19.9399 17.6704 20.5 16 20.5H13.5C13.0858 20.5 12.75 20.1642 12.75 19.75C12.75 19.3358 13.0858 19 13.5 19H16C17.3296 19 18.3793 18.5601 19.0947 17.8447C19.8101 17.1293 20.25 16.0796 20.25 14.75V14.05H19.04C17.6305 14.05 16.2623 13.0193 16.133 11.4967C16.0522 10.6345 16.3805 9.82904 16.9493 9.26996C17.4609 8.74817 18.1623 8.45001 18.92 8.45001H20.25V7.75C20.25 6.5347 19.8817 5.55336 19.2747 4.84999C18.6691 4.14822 17.7851 3.67541 16.6634 3.54497C16.6511 3.54354 16.6389 3.54182 16.6267 3.53979C16.4468 3.5098 16.2445 3.5 16 3.5H7Z"></path>
  </symbol>
  <symbol xmlns="http://www.w3.org/2000/svg" viewBox="0 0 24 24" id="faq">
    <path d="M8 22.3101C7.72 22.3101 7.42998 22.2401 7.16998 22.1001C6.59998 21.8001 6.25 21.2001 6.25 20.5601V19.1402C3.23 18.8302 1.25 16.6101 1.25 13.4301V7.43018C1.25 3.99018 3.56 1.68018 7 1.68018H17C20.44 1.68018 22.75 3.99018 22.75 7.43018V13.4301C22.75 16.8701 20.44 19.1801 17 19.1801H13.23L8.96997 22.0202C8.67997 22.2102 8.34 22.3101 8 22.3101ZM7 3.17017C4.42 3.17017 2.75 4.84017 2.75 7.42017V13.4202C2.75 16.0002 4.42 17.6702 7 17.6702C7.41 17.6702 7.75 18.0102 7.75 18.4202V20.5502C7.75 20.6802 7.83 20.7402 7.88 20.7702C7.93001 20.8002 8.03001 20.8302 8.14001 20.7602L12.59 17.8002C12.71 17.7202 12.86 17.6702 13.01 17.6702H17.01C19.59 17.6702 21.26 16.0002 21.26 13.4202V7.42017C21.26 4.84017 19.59 3.17017 17.01 3.17017H7Z"></path>
    <path d="M11.9998 12.1001C11.5898 12.1001 11.2498 11.7601 11.2498 11.3501V11.1401C11.2498 9.98014 12.0998 9.41013 12.4198 9.19013C12.7898 8.94013 12.9098 8.77014 12.9098 8.51014C12.9098 8.01014 12.4998 7.6001 11.9998 7.6001C11.4998 7.6001 11.0898 8.01014 11.0898 8.51014C11.0898 8.92014 10.7498 9.26014 10.3398 9.26014C9.92984 9.26014 9.58984 8.92014 9.58984 8.51014C9.58984 7.18014 10.6698 6.1001 11.9998 6.1001C13.3298 6.1001 14.4098 7.18014 14.4098 8.51014C14.4098 9.65014 13.5698 10.2201 13.2598 10.4301C12.8698 10.6901 12.7498 10.8601 12.7498 11.1401V11.3501C12.7498 11.7701 12.4098 12.1001 11.9998 12.1001Z"></path>
    <path d="M12 14.5903C11.58 14.5903 11.25 14.2503 11.25 13.8403C11.25 13.4303 11.59 13.0903 12 13.0903C12.41 13.0903 12.75 13.4303 12.75 13.8403C12.75 14.2503 12.42 14.5903 12 14.5903Z"></path>
  </symbol>
  <symbol xmlns="http://www.w3.org/2000/svg" viewBox="0 0 6 10" id="arrow">
    <g clip-path="url(#clip0_96_2)">
      <path fill-rule="evenodd" clip-rule="evenodd" d="M0.292893 0.292893C0.683417 -0.0976311 1.31658 -0.0976311 1.70711 0.292893L5.70711 4.29289C6.09763 4.68342 6.09763 5.31658 5.70711 5.70711L1.70711 9.70711C1.31658 10.0976 0.683417 10.0976 0.292893 9.70711C-0.0976311 9.31658 -0.0976311 8.68342 0.292893 8.29289L3.58579 5L0.292893 1.70711C-0.0976311 1.31658 -0.0976311 0.683417 0.292893 0.292893Z"></path>
    </g>
    <defs>
      <clipPath id="clip0_96_2">
        <rect width="6" height="10" fill="white"></rect>
      </clipPath>
    </defs>
  </symbol>
  <symbol xmlns="http://www.w3.org/2000/svg" viewBox="0 0 37 37" id="logo">
    <g opacity="0.3" clip-path="url(#clip0_106_2)">
      <path d="M18.5002 34.8875C17.4673 34.8875 16.419 34.6562 15.6019 34.1783L7.12278 29.2912C3.66945 26.9633 3.45361 26.6087 3.45361 22.955V14.0442C3.45361 10.3904 3.65403 10.0358 7.0457 7.73874L15.5865 2.80541C17.2052 1.86499 19.749 1.86499 21.3677 2.80541L29.8777 7.70791C33.3311 10.0358 33.5469 10.3904 33.5469 14.0442V22.9396C33.5469 26.5933 33.3465 26.9479 29.9548 29.245L21.414 34.1783C20.5815 34.6562 19.5331 34.8875 18.5002 34.8875ZM18.5002 4.42416C17.8527 4.42416 17.2207 4.54749 16.7736 4.80958L8.29445 9.71208C5.78153 11.4079 5.78153 11.4079 5.78153 14.0442V22.9396C5.78153 25.5758 5.78153 25.5758 8.35611 27.3179L16.7736 32.1742C17.6832 32.6983 19.3327 32.6983 20.2423 32.1742L28.7215 27.2717C31.219 25.5758 31.219 25.5758 31.219 22.9396V14.0442C31.219 11.4079 31.219 11.4079 28.6444 9.66583L20.2269 4.80958C19.7798 4.54749 19.1477 4.42416 18.5002 4.42416Z"></path>
      <path d="M18.5 24.2812C15.3088 24.2812 12.7188 21.6912 12.7188 18.5C12.7188 15.3088 15.3088 12.7188 18.5 12.7188C21.6912 12.7188 24.2812 15.3088 24.2812 18.5C24.2812 21.6912 21.6912 24.2812 18.5 24.2812ZM18.5 15.0312C16.5883 15.0312 15.0312 16.5883 15.0312 18.5C15.0312 20.4117 16.5883 21.9688 18.5 21.9688C20.4117 21.9688 21.9688 20.4117 21.9688 18.5C21.9688 16.5883 20.4117 15.0312 18.5 15.0312Z"></path>
    </g>
    <defs>
      <clipPath id="clip0_106_2">
        <rect width="37" height="37" fill="white"></rect>
      </clipPath>
    </defs>
  </symbol>
  <symbol xmlns="http://www.w3.org/2000/svg" viewBox="0 0 24 24" id="search">
    <g opacity="0.3" clip-path="url(#clip0_106_2)">
      <path fill-rule="evenodd" clip-rule="evenodd" d="M11 4C7.13401 4 4 7.13401 4 11C4 14.866 7.13401 18 11 18C14.866 18 18 14.866 18 11C18 7.13401 14.866 4 11 4ZM2 11C2 6.02944 6.02944 2 11 2C15.9706 2 20 6.02944 20 11C20 15.9706 15.9706 20 11 20C6.02944 20 2 15.9706 2 11Z"></path>
      <path fill-rule="evenodd" clip-rule="evenodd" d="M15.9428 15.9428C16.3333 15.5523 16.9665 15.5523 17.357 15.9428L21.707 20.2928C22.0975 20.6833 22.0975 21.3165 21.707 21.707C21.3165 22.0975 20.6833 22.0975 20.2928 21.707L15.9428 17.357C15.5523 16.9665 15.5523 16.3333 15.9428 15.9428Z"></path>
    </g>
    <defs>
      <clipPath id="clip0_106_2">
        <rect width="24" height="24" fill="white"></rect>
      </clipPath>
    </defs>
  </symbol>
</svg>